<svg id="Layer_1" data-name="Layer 1" xmlns="http://www.w3.org/2000/svg" viewBox="0 0 230 230"><defs><style>.cls-1{fill:#fff;}.cls-2{fill:none;stroke:#5499ec;stroke-linecap:square;stroke-width:7px;}</style></defs><title>navpay</title><path class="cls-1" d="M0,189V41A41,41,0,0,1,41,0H189a41,41,0,0,1,29,12,41.11,41.11,0,0,1,5.1,6.21A41.05,41.05,0,0,1,230,41V189a41,41,0,0,1-6.91,22.78,41.14,41.14,0,0,1-11.31,11.31A41.05,41.05,0,0,1,189,230H41a41,41,0,0,1-22.78-6.91A41.11,41.11,0,0,1,12,218,41,41,0,0,1,0,189Z"/><line class="cls-2" x1="159.58" y1="86.46" x2="159.58" y2="176.91"/><line class="cls-2" x1="68.42" y1="86.46" x2="68.42" y2="176.91"/><line class="cls-2" x1="159.58" y1="180.52" x2="68.42" y2="180.52"/><line class="cls-2" x1="159.58" y1="86.46" x2="134.26" y2="86.46"/><line class="cls-2" x1="93.74" y1="86.46" x2="68.42" y2="86.46"/><line class="cls-2" x1="114" y1="128.07" x2="114" y2="55.71"/><line class="cls-2" x1="114.54" y1="48.48" x2="140.37" y2="68.27"/><line class="cls-2" x1="113.24" y1="48.48" x2="87.41" y2="68.27"/></svg>