<svg id="Layer_1" data-name="Layer 1" xmlns="http://www.w3.org/2000/svg" viewBox="0 0 215.1 429.59"><defs><style>.cls-1{fill:#fff;}</style></defs><title>navpay</title><path class="cls-1" d="M87.39,342.21V23.5a27.24,27.24,0,0,1,.89-8A21.77,21.77,0,0,1,130.57,18a35.51,35.51,0,0,1,.35,6.11V343.2a2.74,2.74,0,0,1,.49.19c.49-.64,1-1.28,1.48-2Q154,312.07,175,282.77a22.35,22.35,0,0,1,13.56-9.32,21.8,21.8,0,0,1,22,34.6q-21.66,30.09-43.28,60.24-18.48,25.8-37,51.55c-3.21,4.49-7.35,7.79-12.77,9-8.82,2.07-16.37-.29-22.28-7.19-5.57-6.56-10.94-13.31-16.36-20Q42.12,356.83,5.42,311.9A22.76,22.76,0,0,1,0,297.06a21.8,21.8,0,0,1,37-15.33c.89.89,1.67,1.83,2.46,2.76l45.89,56.1c.49.59,1,1.18,1.53,1.77A1.84,1.84,0,0,0,87.39,342.21Z"/></svg>