<svg id="Layer_1" data-name="Layer 1" xmlns="http://www.w3.org/2000/svg" viewBox="0 0 123.75 222.03"><defs><style>.cls-1{fill:#fff;}</style></defs><title>navpay</title><path class="cls-1" d="M113.23.11a40.89,40.89,0,0,1,5.43,2.8c6.31,4.61,6.77,13.76.81,19.64-8.4,8.3-16.73,16.71-25.07,25L32.27,109.72c-.42.43-.78.85-1.42,1.49,2.7,2.62,5.32,5.14,7.91,7.7Q79,159.17,119.33,199.48c4.72,4.71,5.68,10.14,2.8,15.81a12.17,12.17,0,0,1-6.91,6l-1.92.78h-4.61c-6-1.59-9.47-6.6-13.58-10.64-7-6.77-13.79-13.72-20.67-20.64L53.9,170.22Q42.74,159.11,31.6,148q-10.28-10.26-20.5-20.53c-2.77-2.8-5.6-5.57-8.23-8.51-3.79-4.26-3.86-11.67,0-15.82C7.8,97.84,12.91,92.77,18,87.66,24.79,80.78,31.67,74,38.51,67.13S52.2,53.44,59.05,46.63C66.53,39.19,74,31.7,81.46,24.26c7.05-7,14.08-14.15,21.28-21,1.59-1.53,4-2.2,6-3.23C110.15.11,111.71.11,113.23.11Z"/></svg>