<svg id="Layer_1" data-name="Layer 1" xmlns="http://www.w3.org/2000/svg" viewBox="0 0 230 230" ><defs><style>.cls-1{fill:#fff;}.cls-2{fill:#686871;}</style></defs><title>navpay</title><path class="cls-1" d="M0,189V41A41,41,0,0,1,41,0H189a41,41,0,0,1,29,12,41.11,41.11,0,0,1,5.1,6.21A41.05,41.05,0,0,1,230,41V189a41,41,0,0,1-6.91,22.78,41.14,41.14,0,0,1-11.31,11.31A41.05,41.05,0,0,1,189,230H41a41,41,0,0,1-22.78-6.91A41.11,41.11,0,0,1,12,218,41,41,0,0,1,0,189Z"/><path class="cls-2" d="M41,158V72a30.72,30.72,0,0,1,.6-6,30.4,30.4,0,0,1,1.76-5.81A30.94,30.94,0,0,1,60.14,43.36,30.4,30.4,0,0,1,66,41.6a30.72,30.72,0,0,1,6-.6h86a30.72,30.72,0,0,1,6.05.6,30.4,30.4,0,0,1,5.81,1.76,30.94,30.94,0,0,1,16.78,16.78A30.4,30.4,0,0,1,188.4,66a30.72,30.72,0,0,1,.6,6v86a30.72,30.72,0,0,1-.6,6.05,30.4,30.4,0,0,1-1.76,5.81,30.94,30.94,0,0,1-16.78,16.78,30.4,30.4,0,0,1-5.81,1.76,30.72,30.72,0,0,1-6.05.6H72a30.72,30.72,0,0,1-6-.6,30.4,30.4,0,0,1-5.81-1.76,30.94,30.94,0,0,1-16.78-16.78,30.4,30.4,0,0,1-1.76-5.81A30.72,30.72,0,0,1,41,158Z"/><path class="cls-1" d="M109.5,141V90a5.87,5.87,0,0,1,.46-2.3,6,6,0,0,1,3.24-3.24,6,6,0,0,1,4.6,0A6,6,0,0,1,121,87.7a5.87,5.87,0,0,1,.46,2.3v51a5.87,5.87,0,0,1-.46,2.3,6,6,0,0,1-3.24,3.24,6,6,0,0,1-4.6,0A6,6,0,0,1,110,143.3,5.87,5.87,0,0,1,109.5,141Z"/><path class="cls-1" d="M141,121.5H90a5.87,5.87,0,0,1-2.3-.46,6,6,0,0,1-3.24-3.24,6,6,0,0,1,0-4.6A6,6,0,0,1,87.7,110a5.87,5.87,0,0,1,2.3-.46h51a5.87,5.87,0,0,1,2.3.46,6,6,0,0,1,3.24,3.24,6,6,0,0,1,0,4.6A6,6,0,0,1,143.3,121,5.87,5.87,0,0,1,141,121.5Z"/></svg>